<svg width="24" height="24" viewBox="0 0 24 24" fill="none" xmlns="http://www.w3.org/2000/svg">
<mask id="mask0_8_32" style="mask-type:alpha" maskUnits="userSpaceOnUse" x="0" y="0" width="24" height="24">
<rect width="24" height="24" fill="#D9D9D9"/>
</mask>
<g mask="url(#mask0_8_32)">
<path d="M6.38342 19.6166L6.3834 19.6166C6.12379 19.357 6.00003 19.0581 6.00003 18.6923V5.99999V5.49999H5.50003H5.25003C5.16273 5.49999 5.1139 5.47598 5.06898 5.43106L5.06896 5.43104C5.02404 5.38613 5.00003 5.3373 5.00003 5.25002C5.00003 5.16273 5.02404 5.11391 5.06896 5.06899L5.069 5.06895C5.11392 5.02403 5.16275 5.00002 5.25003 5.00002H9.00001H9.50001V4.50002C9.50001 4.38714 9.53398 4.30585 9.61221 4.22762C9.69044 4.14939 9.77173 4.11542 9.88461 4.11542H14.1154C14.2283 4.11542 14.3096 4.14939 14.3878 4.22762C14.466 4.30585 14.5 4.38714 14.5 4.50002V5.00002H15H18.75C18.8373 5.00002 18.8861 5.02403 18.931 5.06895L18.931 5.06899C18.976 5.11391 19 5.16274 19 5.25002C19 5.3373 18.976 5.38612 18.931 5.43104L18.931 5.43106C18.8861 5.47598 18.8373 5.49999 18.75 5.49999H18.5H18V5.99999V18.6923C18 19.0581 17.8762 19.357 17.6166 19.6166L17.6166 19.6166C17.357 19.8762 17.0581 20 16.6923 20H7.30773C6.94186 20 6.64302 19.8762 6.38342 19.6166ZM17.5 5.99999V5.49999H17H7.00001H6.50001V5.99999V18.6923C6.50001 18.9001 6.57172 19.1057 6.733 19.267C6.89428 19.4283 7.09993 19.5 7.30773 19.5H16.6923C16.9001 19.5 17.1057 19.4283 17.267 19.267C17.4283 19.1057 17.5 18.9001 17.5 18.6923V5.99999ZM12.3536 13.2003L12 12.8467L11.6465 13.2003L9.57335 15.2733L9.57333 15.2734C9.52301 15.3237 9.47489 15.3442 9.40001 15.3442C9.32512 15.3442 9.277 15.3237 9.22668 15.2734L9.22664 15.2733C9.17988 15.2266 9.15935 15.1807 9.16055 15.1029L9.16055 15.1028C9.16192 15.0131 9.187 14.9663 9.22664 14.9267L9.22666 14.9266L11.2997 12.8535L11.6533 12.5L11.2997 12.1464L9.22666 10.0733L9.22664 10.0733C9.17631 10.023 9.15578 9.97488 9.15578 9.89999C9.15578 9.82511 9.17631 9.77699 9.22664 9.72667L9.22668 9.72663C9.27343 9.67987 9.31927 9.65934 9.39713 9.66053L9.39717 9.66053C9.48694 9.66191 9.53369 9.68698 9.57333 9.72663L9.57335 9.72665L11.6465 11.7997L12 12.1533L12.3536 11.7997L14.4267 9.72665L14.4267 9.72663C14.477 9.6763 14.5251 9.65577 14.6 9.65577C14.6749 9.65577 14.723 9.6763 14.7733 9.72663L14.7734 9.72667C14.8201 9.77342 14.8407 9.81926 14.8395 9.89712L14.8395 9.89716C14.8381 9.98693 14.813 10.0337 14.7734 10.0733L14.7733 10.0733L12.7003 12.1464L12.3467 12.5L12.7003 12.8535L14.7733 14.9266L14.7734 14.9267C14.8237 14.977 14.8442 15.0251 14.8442 15.1C14.8442 15.1749 14.8237 15.223 14.7734 15.2733L14.7733 15.2734C14.7266 15.3201 14.6807 15.3406 14.6029 15.3395L14.6028 15.3395C14.5131 15.3381 14.4663 15.313 14.4267 15.2734L14.4267 15.2733L12.3536 13.2003Z" fill="#E63946" stroke="#E63946"/>
</g>
</svg>
