<svg width="24" height="24" viewBox="0 0 24 24" fill="none" xmlns="http://www.w3.org/2000/svg">
<mask id="mask0_8_44" style="mask-type:alpha" maskUnits="userSpaceOnUse" x="0" y="0" width="24" height="24">
<rect width="24" height="24" fill="#D9D9D9"/>
</mask>
<g mask="url(#mask0_8_44)">
<path d="M6.50001 18.6923V19H6.55717C6.59528 19.0965 6.65317 19.1872 6.733 19.267C6.89428 19.4283 7.09993 19.5 7.30773 19.5H16.6923C16.9001 19.5 17.1057 19.4283 17.267 19.267C17.4283 19.1057 17.5 18.9001 17.5 18.6923V6V5.5H17H7.00001H6.50001V6V18.6923ZM6.38342 19.6166L6.3834 19.6166C6.12379 19.357 6.00003 19.0581 6.00003 18.6923V6V5.5H5.50003H5.25003C5.16273 5.5 5.1139 5.47599 5.06898 5.43107L5.06896 5.43105C5.02404 5.38613 5.00003 5.33731 5.00003 5.25002C5.00003 5.16274 5.02404 5.11392 5.06896 5.069L5.069 5.06896C5.11392 5.02403 5.16275 5.00002 5.25003 5.00002H9.00001H9.50001V4.50002C9.50001 4.38715 9.53398 4.30586 9.61221 4.22763C9.69044 4.1494 9.77173 4.11543 9.88461 4.11543H14.1154C14.2283 4.11543 14.3096 4.1494 14.3878 4.22763C14.466 4.30586 14.5 4.38715 14.5 4.50002V5.00002H15H18.75C18.8373 5.00002 18.8861 5.02403 18.931 5.06896L18.931 5.069C18.976 5.11392 19 5.16274 19 5.25002C19 5.33731 18.976 5.38613 18.931 5.43105L18.931 5.43107C18.8861 5.47599 18.8373 5.5 18.75 5.5H18.5H18V6V18.6923C18 19.0581 17.8762 19.357 17.6166 19.6166L17.6166 19.6166C17.357 19.8762 17.0581 20 16.6923 20H7.30773C6.94186 20 6.64302 19.8762 6.38342 19.6166ZM10.4039 8.5V16.5H9.90388V8.5H10.4039ZM14.0961 8.5V16.5H13.5962V8.5H14.0961Z" fill="#8E9AAB" stroke="#8E9AAB"/>
</g>
</svg>
