<svg width="24" height="24" viewBox="0 0 24 24" fill="none" xmlns="http://www.w3.org/2000/svg">
<path d="M6.50001 19.5C5.11797 19.5 3.93913 19.0198 2.96348 18.0596C1.98785 17.0993 1.50003 15.9282 1.50003 14.5461C1.50003 13.3038 1.89971 12.2112 2.69908 11.2683C3.49845 10.3253 4.48979 9.7667 5.67311 9.59235C5.99362 8.09746 6.74522 6.87502 7.92791 5.92502C9.11059 4.97502 10.468 4.50002 12 4.50002C13.809 4.50002 15.3445 5.13111 16.6067 6.3933C17.8689 7.65547 18.5 9.19103 18.5 11V11.5H18.8077C19.8615 11.5821 20.7404 12.0058 21.4442 12.7712C22.1481 13.5366 22.5 14.4462 22.5 15.5C22.5 16.6154 22.1122 17.5609 21.3365 18.3365C20.5609 19.1122 19.6154 19.5 18.5 19.5H6.50001ZM10.35 16.2769C10.4705 16.2769 10.5827 16.2577 10.6865 16.2192C10.7904 16.1807 10.8891 16.1147 10.9827 16.0211L15.1115 11.8923C15.2602 11.7436 15.3362 11.5644 15.3394 11.3548C15.3426 11.1452 15.2667 10.9628 15.1115 10.8077C14.9564 10.6526 14.7756 10.575 14.5692 10.575C14.3628 10.575 14.1821 10.6526 14.027 10.8077L10.3346 14.5L8.74231 12.9077C8.59359 12.759 8.41956 12.683 8.22021 12.6798C8.02084 12.6766 7.8436 12.7526 7.68848 12.9077C7.53335 13.0628 7.45578 13.241 7.45578 13.4423C7.45578 13.6436 7.53335 13.8218 7.68848 13.9769L9.71733 16.0211C9.81091 16.1147 9.90963 16.1807 10.0135 16.2192C10.1173 16.2577 10.2295 16.2769 10.35 16.2769ZM6.50001 18H18.5C19.2 18 19.7917 17.7583 20.275 17.275C20.7583 16.7917 21 16.2 21 15.5C21 14.8 20.7583 14.2083 20.275 13.725C19.7917 13.2417 19.2 13 18.5 13H17V11C17 9.61667 16.5125 8.4375 15.5375 7.4625C14.5625 6.4875 13.3833 6 12 6C10.6167 6 9.43751 6.4875 8.46251 7.4625C7.48751 8.4375 7.00001 9.61667 7.00001 11H6.48078C5.53335 11 4.71636 11.3417 4.02981 12.025C3.34327 12.7083 3.00001 13.5333 3.00001 14.5C3.00001 15.4667 3.34167 16.2917 4.02501 16.975C4.70834 17.6583 5.53334 18 6.50001 18Z" fill="#0B7A75"/>
</svg>
