<svg width="24" height="24" viewBox="0 0 24 24" fill="none" xmlns="http://www.w3.org/2000/svg">
<path d="M6.50001 19.5C5.11797 19.5 3.93913 19.0198 2.96348 18.0596C1.98785 17.0993 1.50003 15.9282 1.50003 14.5461C1.50003 13.3038 1.89971 12.2112 2.69908 11.2683C3.49845 10.3253 4.48979 9.7667 5.67311 9.59235C5.99362 8.09746 6.74522 6.87502 7.92791 5.92502C9.11059 4.97502 10.468 4.50002 12 4.50002C13.809 4.50002 15.3445 5.13111 16.6067 6.3933C17.8689 7.65547 18.5 9.19103 18.5 11V11.5H18.8077C19.8615 11.5821 20.7404 12.0058 21.4442 12.7712C22.1481 13.5366 22.5 14.4462 22.5 15.5C22.5 16.6154 22.1122 17.5609 21.3365 18.3365C20.5609 19.1122 19.6154 19.5 18.5 19.5H6.50001ZM10.35 16.2769C10.4705 16.2769 10.5827 16.2577 10.6865 16.2192C10.7904 16.1807 10.8891 16.1147 10.9827 16.0211L15.1115 11.8923C15.2667 11.7372 15.3442 11.5564 15.3442 11.35C15.3442 11.1436 15.2667 10.9628 15.1115 10.8077C14.9564 10.6526 14.7756 10.575 14.5692 10.575C14.3628 10.575 14.1821 10.6526 14.027 10.8077L10.3346 14.5L8.74231 12.9077C8.59744 12.7628 8.4218 12.6904 8.21538 12.6904C8.00898 12.6904 7.83335 12.7628 7.68848 12.9077C7.53335 13.0628 7.45578 13.2436 7.45578 13.45C7.45578 13.6564 7.53335 13.832 7.68848 13.9769L9.71733 16.0211C9.81091 16.1147 9.90963 16.1807 10.0135 16.2192C10.1173 16.2577 10.2295 16.2769 10.35 16.2769Z" fill="#0B7A75"/>
</svg>
