<?xml version="1.0" standalone="no"?>
<!DOCTYPE svg PUBLIC "-//W3C//DTD SVG 20010904//EN"
 "http://www.w3.org/TR/2001/REC-SVG-20010904/DTD/svg10.dtd">
<svg version="1.0" xmlns="http://www.w3.org/2000/svg"
 width="700.000000pt" height="700.000000pt" viewBox="0 0 700.000000 700.000000"
 preserveAspectRatio="xMidYMid meet">
<metadata>
Created by potrace 1.14, written by Peter Selinger 2001-2017
</metadata>
<g transform="translate(0.000000,700.000000) scale(0.100000,-0.100000)"
fill="#000000" stroke="none">
<path d="M3240 6260 c-468 -47 -885 -197 -1278 -457 -301 -199 -574 -472 -768
-768 -296 -452 -444 -915 -461 -1445 -19 -592 132 -1122 461 -1625 300 -456
758 -829 1279 -1039 201 -81 417 -138 652 -173 169 -24 581 -24 750 0 265 39
499 105 731 207 879 385 1487 1178 1636 2135 29 188 32 596 5 780 -64 430
-203 796 -441 1160 -422 644 -1120 1088 -1896 1206 -153 23 -525 34 -670 19z
m1555 -1831 c53 -13 116 -65 140 -115 24 -51 22 -140 -3 -190 -31 -59 -1696
-1719 -1746 -1739 -60 -25 -155 -21 -213 9 -65 33 -895 864 -918 918 -24 58
-19 132 11 189 38 69 90 102 169 107 113 7 106 13 498 -377 l358 -355 767 767
c677 677 773 770 812 782 56 17 71 18 125 4z"/>
</g>
</svg>
